<svg width="167" height="167" viewBox="0 0 167 167" fill="none" xmlns="http://www.w3.org/2000/svg">
<path fill-rule="evenodd" clip-rule="evenodd" d="M82.6746 166.5C127.686 166.5 167 128.511 167 83.5C167 38.4888 128.648 0 83.6366 0C38.6254 0 0 38.4888 0 83.5C0 128.511 37.6634 166.5 82.6746 166.5ZM83.5 161.024C126.316 161.024 161.024 126.316 161.024 83.5C161.024 40.6845 126.316 5.97561 83.5 5.97561C40.6845 5.97561 5.97561 40.6845 5.97561 83.5C5.97561 126.316 40.6845 161.024 83.5 161.024Z" fill="#0EA5E9"/>
<path d="M37.5 60.5H55.5V65.5H44V72H53V77H44V87H37.5V60.5Z" fill="#0EA5E9"/>
<path d="M64 60.5H70V87H64V60.5Z" fill="#0EA5E9"/>
<path fill-rule="evenodd" clip-rule="evenodd" d="M80 60.5V87H86.5V78H91C95.8325 78 98.5 74.3325 98.5 69.5C98.5 64.6675 95.8325 60.5 91 60.5H80ZM88.25 65.5H86.5V73.5H88.25C90.5972 73.5 92.5 71.8472 92.5 69.5C92.5 67.1528 90.5972 65.5 88.25 65.5Z" fill="#0EA5E9"/>
<path d="M106 60.5H112V78C112 80.4853 114.015 82.5 116.5 82.5H118.5C120.985 82.5 123 80.4853 123 78V60.5H129V78C129 83.5228 124.523 88 119 88H116C110.477 88 106 83.5228 106 78V60.5Z" fill="#0EA5E9"/>
<path d="M30.688 110.01V113H20.444V95.32H30.428V98.31H23.564V102.548H29.648V105.538H23.564V110.01H30.688Z" fill="#9D8800"/>
<path d="M34.3835 113V95.32H40.3635C42.4781 95.32 44.0901 95.9093 45.1995 97.088C46.3088 98.2667 46.8635 100 46.8635 102.288V106.006C46.8635 108.311 46.3088 110.053 45.1995 111.232C44.0901 112.411 42.4781 113 40.3635 113H34.3835ZM40.2335 98.31H37.5035V110.01H40.2335C41.4641 110.01 42.3395 109.707 42.8595 109.1C43.3968 108.493 43.6655 107.462 43.6655 106.006V102.288C43.6655 100.849 43.3968 99.8267 42.8595 99.22C42.3395 98.6133 41.4641 98.31 40.2335 98.31Z" fill="#9D8800"/>
<path d="M50.5729 95.32H53.7709V106.656C53.7709 107.8 54.0223 108.701 54.5249 109.36C55.0276 110.001 55.8336 110.322 56.9429 110.322C58.0523 110.322 58.8583 110.001 59.3609 109.36C59.8636 108.701 60.1149 107.8 60.1149 106.656V95.32H63.3129V106.656C63.3129 108.649 62.7843 110.253 61.7269 111.466C60.6696 112.662 59.0749 113.26 56.9429 113.26C54.7936 113.26 53.1903 112.662 52.1329 111.466C51.0929 110.253 50.5729 108.649 50.5729 106.656V95.32Z" fill="#9D8800"/>
<path d="M75.3946 106.006C75.3946 107.271 75.6719 108.311 76.2266 109.126C76.7813 109.923 77.6913 110.322 78.9566 110.322C79.4766 110.322 80.0139 110.253 80.5686 110.114C81.1406 109.975 81.8426 109.741 82.6746 109.412L83.6366 112.116C82.7006 112.532 81.8339 112.827 81.0366 113C80.2566 113.173 79.5026 113.26 78.7746 113.26C77.3186 113.26 76.0966 112.948 75.1086 112.324C74.1379 111.7 73.4099 110.842 72.9246 109.75C72.4393 108.658 72.1966 107.41 72.1966 106.006V102.288C72.1966 100.884 72.4393 99.636 72.9246 98.544C73.4099 97.452 74.1379 96.6027 75.1086 95.996C76.0966 95.372 77.3186 95.06 78.7746 95.06C79.4853 95.06 80.2219 95.1467 80.9846 95.32C81.7473 95.476 82.5793 95.7533 83.4806 96.152L82.5186 98.908C81.7213 98.5787 81.0539 98.3447 80.5166 98.206C79.9793 98.0673 79.4593 97.998 78.9566 97.998C77.6913 97.998 76.7813 98.3967 76.2266 99.194C75.6719 99.9913 75.3946 101.023 75.3946 102.288V106.006Z" fill="#9D8800"/>
<path d="M99.2703 102.288V106.006C99.2703 108.259 98.707 110.036 97.5803 111.336C96.4536 112.619 94.807 113.26 92.6403 113.26C90.4563 113.26 88.801 112.619 87.6743 111.336C86.565 110.036 86.0103 108.259 86.0103 106.006V102.288C86.0103 100.035 86.565 98.2667 87.6743 96.984C88.801 95.7013 90.4563 95.06 92.6403 95.06C94.807 95.06 96.4536 95.7013 97.5803 96.984C98.707 98.2667 99.2703 100.035 99.2703 102.288ZM96.0723 102.288C96.0723 100.867 95.795 99.8007 95.2403 99.09C94.6856 98.362 93.819 97.998 92.6403 97.998C91.4616 97.998 90.595 98.362 90.0403 99.09C89.4856 99.8007 89.2083 100.867 89.2083 102.288V106.006C89.2083 107.427 89.4856 108.502 90.0403 109.23C90.595 109.958 91.4616 110.322 92.6403 110.322C93.819 110.322 94.6856 109.958 95.2403 109.23C95.795 108.502 96.0723 107.427 96.0723 106.006V102.288Z" fill="#9D8800"/>
<path d="M103.395 113V95.32H109.375C111.49 95.32 113.102 95.9093 114.211 97.088C115.321 98.2667 115.875 100 115.875 102.288V106.006C115.875 108.311 115.321 110.053 114.211 111.232C113.102 112.411 111.49 113 109.375 113H103.395ZM109.245 98.31H106.515V110.01H109.245C110.476 110.01 111.351 109.707 111.871 109.1C112.409 108.493 112.677 107.462 112.677 106.006V102.288C112.677 100.849 112.409 99.8267 111.871 99.22C111.351 98.6133 110.476 98.31 109.245 98.31Z" fill="#9D8800"/>
<path d="M130.245 110.01V113H120.001V95.32H129.985V98.31H123.121V102.548H129.205V105.538H123.121V110.01H130.245Z" fill="#9D8800"/>
<path d="M137.06 106.5V113H133.94V95.32H139.842C141.627 95.32 142.997 95.7793 143.95 96.698C144.921 97.5993 145.406 98.8127 145.406 100.338V101.456C145.406 102.461 145.189 103.345 144.756 104.108C144.323 104.871 143.699 105.451 142.884 105.85C144.305 108.277 145.519 110.66 146.524 113H142.962C142.095 110.833 141.064 108.667 139.868 106.5H137.06ZM139.842 98.18H137.06V103.64H139.842C140.605 103.64 141.185 103.449 141.584 103.068C142 102.669 142.208 102.132 142.208 101.456V100.338C142.208 99.6793 142 99.1593 141.584 98.778C141.185 98.3793 140.605 98.18 139.842 98.18Z" fill="#9D8800"/>
</svg>
