<?xml version="1.0" standalone="no"?>
<!DOCTYPE svg PUBLIC "-//W3C//DTD SVG 20010904//EN"
 "http://www.w3.org/TR/2001/REC-SVG-20010904/DTD/svg10.dtd">
<svg version="1.0" xmlns="http://www.w3.org/2000/svg"
 width="700.000000pt" height="700.000000pt" viewBox="0 0 700.000000 700.000000"
 preserveAspectRatio="xMidYMid meet">
<metadata>
Created by potrace 1.14, written by Peter Selinger 2001-2017
</metadata>
<g transform="translate(0.000000,700.000000) scale(0.100000,-0.100000)"
fill="#000000" stroke="none">
<path d="M3298 6995 c-1 -1 -41 -6 -88 -9 -47 -4 -101 -9 -120 -12 -54 -7
-173 -26 -195 -31 -11 -2 -33 -6 -50 -9 -16 -3 -84 -19 -150 -35 -1119 -279
-2071 -1133 -2480 -2224 -76 -203 -156 -510 -179 -690 -14 -105 -18 -140 -26
-212 -8 -80 -5 -544 4 -598 3 -16 10 -70 16 -120 62 -502 261 -1022 563 -1475
376 -561 938 -1029 1547 -1285 36 -15 74 -31 85 -36 193 -84 572 -181 835
-213 228 -29 581 -29 805 -1 22 3 60 7 85 10 35 5 198 36 310 60 84 18 370
107 435 136 11 4 69 29 129 55 436 183 865 481 1200 833 87 92 86 91 141 156
28 33 53 62 56 65 14 12 144 188 197 267 269 401 475 915 537 1337 3 21 7 48
10 60 5 26 12 83 22 184 15 146 6 672 -11 701 -2 3 -7 31 -10 62 -4 31 -9 67
-11 80 -3 13 -12 62 -21 108 -9 47 -33 148 -55 225 -281 1024 -1031 1892
-2009 2324 -233 104 -543 199 -765 237 -16 3 -41 7 -54 10 -14 2 -59 9 -100
14 -42 6 -96 13 -121 16 -47 7 -526 16 -532 10z m507 -259 c33 -3 74 -8 90
-11 17 -2 53 -7 80 -10 119 -15 335 -64 496 -114 353 -108 752 -318 1033 -543
164 -131 385 -346 496 -483 35 -44 67 -82 70 -85 3 -3 28 -36 56 -75 212 -298
360 -588 467 -920 34 -107 90 -324 101 -395 3 -19 8 -44 10 -56 4 -18 8 -48
22 -154 13 -100 19 -223 19 -395 -1 -245 -10 -362 -45 -560 -159 -889 -670
-1661 -1428 -2158 -360 -236 -768 -397 -1207 -476 -199 -36 -326 -46 -570 -46
-176 1 -333 8 -391 19 -10 2 -41 7 -69 10 -27 4 -72 11 -100 16 -27 5 -61 11
-75 14 -14 2 -72 15 -130 29 -474 116 -928 344 -1310 660 -124 102 -352 335
-453 462 -201 253 -371 543 -485 830 -36 90 -109 307 -117 345 -2 8 -10 42
-18 75 -17 64 -46 204 -52 245 -2 14 -6 48 -10 75 -4 28 -9 58 -11 68 -25 134
-25 657 1 797 2 14 7 43 10 65 50 353 154 681 321 1010 41 82 82 157 90 166 8
8 14 19 14 23 0 17 172 265 256 370 101 125 303 334 421 434 335 285 708 493
1122 626 168 55 285 82 522 121 46 8 93 13 179 20 47 4 87 9 88 11 6 5 443 -4
507 -10z"/>
<path d="M1574 4455 c-2 -5 -3 -255 -2 -555 l3 -545 132 -2 c114 -1 132 1 135
15 2 10 3 104 3 210 l-1 192 188 0 188 0 0 105 0 105 -27 1 c-16 0 -100 1
-188 2 l-160 2 0 133 c0 84 3 132 10 133 5 1 114 2 240 3 l230 1 1 103 c1 56
-2 103 -5 103 -3 1 -172 2 -375 3 -239 1 -370 -2 -372 -9z"/>
<path d="M2685 4460 c-1 -3 -3 -253 -2 -556 l0 -551 126 1 126 1 0 548 c0 355
-4 551 -10 555 -12 8 -235 10 -240 2z"/>
<path d="M3369 4462 c-14 -2 -15 -61 -15 -556 l0 -553 135 1 136 1 1 180 c1
99 2 183 3 187 1 3 61 8 134 10 112 3 140 7 185 27 106 48 171 159 177 306 7
157 -46 283 -150 352 -61 41 -100 46 -350 47 -132 1 -247 0 -256 -2z m425
-235 c82 -45 108 -158 52 -231 -42 -55 -69 -69 -149 -74 l-72 -4 0 163 c0 134
3 165 15 170 28 11 114 -2 154 -24z"/>
<path d="M4450 4460 c-4 -3 -7 -187 -5 -410 2 -353 4 -411 19 -450 57 -152
171 -250 324 -280 40 -8 107 -11 184 -7 112 5 125 7 192 41 82 41 139 91 183
162 56 92 60 128 59 558 l-1 390 -113 1 c-62 0 -118 -2 -125 -5 -9 -4 -12 -92
-13 -390 0 -373 -1 -386 -21 -426 -12 -22 -40 -53 -62 -68 -35 -24 -53 -29
-121 -32 -97 -5 -147 6 -188 44 -66 58 -67 67 -67 490 0 210 -2 382 -5 383
-18 4 -233 3 -240 -1z"/>
<path d="M3221 3003 c-92 -23 -156 -88 -181 -183 -7 -25 -13 -108 -13 -185 -1
-168 15 -232 74 -299 47 -54 104 -78 189 -81 65 -2 182 23 202 43 11 11 -19
112 -33 112 -3 0 -26 -7 -50 -16 -52 -18 -130 -20 -167 -5 -15 6 -38 28 -52
49 -23 35 -25 46 -27 183 -3 138 -2 148 23 196 18 38 33 54 56 62 46 16 112
13 167 -8 l50 -19 20 59 c11 32 17 60 13 63 -4 2 -24 9 -44 15 -84 27 -159 32
-227 14z"/>
<path d="M3819 3010 c-111 -18 -185 -96 -206 -216 -12 -66 -8 -299 5 -349 34
-123 127 -190 262 -190 48 0 92 7 122 18 53 20 110 77 133 134 38 89 35 369
-5 461 -48 111 -166 165 -311 142z m142 -137 c51 -30 62 -72 65 -228 2 -188
-14 -233 -94 -260 -68 -24 -135 0 -168 59 -20 35 -22 55 -23 183 -2 129 0 150
20 189 11 24 33 51 47 59 37 20 118 19 153 -2z"/>
<path d="M859 2975 c0 -16 -1 -183 -1 -370 l-1 -340 214 0 214 0 1 63 1 62
-149 0 -148 0 0 93 0 93 116 0 c64 -1 121 2 127 6 10 6 14 104 4 114 -3 3 -59
5 -126 5 l-121 -1 0 90 0 89 143 3 142 3 0 60 0 60 -207 0 -208 0 -1 -30z"/>
<path d="M1445 3000 c-2 -4 -4 -171 -4 -372 l0 -365 157 2 c177 2 227 12 278
57 71 62 91 141 88 344 -2 151 -19 210 -79 269 -31 32 -55 46 -96 55 -54 14
-337 21 -344 10z m333 -147 c42 -31 51 -73 51 -230 -1 -130 -3 -146 -23 -175
-31 -47 -60 -58 -153 -58 l-83 0 0 238 c0 131 3 242 8 246 4 5 44 6 90 4 62
-3 89 -9 110 -25z"/>
<path d="M2120 2737 c1 -303 7 -339 68 -407 49 -56 118 -79 218 -74 120 5 197
59 229 160 15 48 18 98 19 316 1 143 -1 263 -4 267 -6 8 -116 9 -124 0 -3 -3
-6 -120 -6 -260 -1 -226 -3 -259 -20 -297 -21 -48 -51 -64 -119 -64 -28 0 -54
7 -70 20 -52 38 -55 56 -57 337 -1 143 -3 262 -3 265 -1 3 -30 5 -66 5 l-66 0
1 -268z"/>
<path d="M4336 2990 c-2 -8 -3 -175 -2 -370 l1 -355 150 -1 c160 0 214 9 269
47 77 53 99 121 101 314 2 191 -10 241 -74 305 -62 62 -108 74 -294 75 -124 0
-148 -2 -151 -15z m286 -116 c83 -14 101 -63 101 -265 -1 -185 -28 -219 -180
-219 l-78 0 1 243 c1 133 2 243 3 245 2 5 117 2 153 -4z"/>
<path d="M5034 3001 c-2 -2 -4 -169 -4 -371 l0 -366 213 0 212 1 3 63 3 62
-151 0 -150 0 0 93 0 93 113 -1 c61 -1 119 2 129 7 12 6 16 20 14 60 -2 61 9
57 -146 60 l-105 3 -3 88 -3 87 146 0 146 0 -3 62 -3 63 -203 0 c-112 0 -205
-2 -208 -4z"/>
<path d="M5619 3005 c-1 0 -3 -167 -3 -371 l-2 -371 63 0 c35 0 64 3 64 6 1 3
3 60 4 126 1 66 3 125 4 131 1 9 77 12 113 5 7 -1 111 -213 122 -247 6 -18 14
-21 80 -21 l74 -1 -10 31 c-13 36 -116 238 -129 251 -5 6 8 25 31 48 48 48 68
107 64 195 -3 74 -31 139 -71 170 -52 37 -102 47 -255 48 -82 0 -149 0 -149 0z
m269 -124 c13 -1 34 -12 47 -26 21 -20 25 -34 25 -82 0 -69 -17 -98 -63 -111
-37 -10 -134 -8 -145 2 -4 4 -7 53 -7 109 0 115 0 115 75 111 25 -1 55 -3 68
-3z"/>
</g>
</svg>
